<svg xmlns="http://www.w3.org/2000/svg" width="24" height="24" viewBox="0 0 24 24" fill="none">
  <!-- Dark outline for light backgrounds -->
  <circle cx="12" cy="12" r="4" stroke="#000000" stroke-width="3"/>
  <line x1="12" y1="1" x2="12" y2="4" stroke="#000000" stroke-width="3" stroke-linecap="round"/>
  <line x1="12" y1="20" x2="12" y2="23" stroke="#000000" stroke-width="3" stroke-linecap="round"/>
  <line x1="4.22" y1="4.22" x2="6.34" y2="6.34" stroke="#000000" stroke-width="3" stroke-linecap="round"/>
  <line x1="17.66" y1="17.66" x2="19.78" y2="19.78" stroke="#000000" stroke-width="3" stroke-linecap="round"/>
  <line x1="1" y1="12" x2="4" y2="12" stroke="#000000" stroke-width="3" stroke-linecap="round"/>
  <line x1="20" y1="12" x2="23" y2="12" stroke="#000000" stroke-width="3" stroke-linecap="round"/>
  <line x1="4.22" y1="19.78" x2="6.34" y2="17.66" stroke="#000000" stroke-width="3" stroke-linecap="round"/>
  <line x1="17.66" y1="6.34" x2="19.78" y2="4.22" stroke="#000000" stroke-width="3" stroke-linecap="round"/>
  <!-- Light stroke for dark backgrounds -->
  <circle cx="12" cy="12" r="4" stroke="#FFFFFF" stroke-width="2"/>
  <line x1="12" y1="1" x2="12" y2="4" stroke="#FFFFFF" stroke-width="2" stroke-linecap="round"/>
  <line x1="12" y1="20" x2="12" y2="23" stroke="#FFFFFF" stroke-width="2" stroke-linecap="round"/>
  <line x1="4.22" y1="4.22" x2="6.34" y2="6.34" stroke="#FFFFFF" stroke-width="2" stroke-linecap="round"/>
  <line x1="17.66" y1="17.66" x2="19.78" y2="19.78" stroke="#FFFFFF" stroke-width="2" stroke-linecap="round"/>
  <line x1="1" y1="12" x2="4" y2="12" stroke="#FFFFFF" stroke-width="2" stroke-linecap="round"/>
  <line x1="20" y1="12" x2="23" y2="12" stroke="#FFFFFF" stroke-width="2" stroke-linecap="round"/>
  <line x1="4.22" y1="19.78" x2="6.34" y2="17.66" stroke="#FFFFFF" stroke-width="2" stroke-linecap="round"/>
  <line x1="17.66" y1="6.34" x2="19.78" y2="4.22" stroke="#FFFFFF" stroke-width="2" stroke-linecap="round"/>
</svg>
