<svg width="24" height="24" viewBox="0 0 24 24" fill="none" xmlns="http://www.w3.org/2000/svg">
  <!-- Outer stroke for visibility on both light and dark -->
  <circle cx="12" cy="12" r="4" stroke="#FFFFFF" stroke-width="3" fill="none"/>
  <circle cx="12" cy="12" r="4" stroke="#333333" stroke-width="1.5" fill="#FFA500"/>

  <!-- Sun rays with dual stroke -->
  <g stroke="#FFFFFF" stroke-width="2.5" stroke-linecap="round">
    <path d="M12 2v2"/>
    <path d="M12 20v2"/>
    <path d="M4.93 4.93l1.41 1.41"/>
    <path d="M17.66 17.66l1.41 1.41"/>
    <path d="M2 12h2"/>
    <path d="M20 12h2"/>
    <path d="M4.93 19.07l1.41-1.41"/>
    <path d="M17.66 6.34l1.41-1.41"/>
  </g>
  <g stroke="#333333" stroke-width="1" stroke-linecap="round">
    <path d="M12 2v2"/>
    <path d="M12 20v2"/>
    <path d="M4.93 4.93l1.41 1.41"/>
    <path d="M17.66 17.66l1.41 1.41"/>
    <path d="M2 12h2"/>
    <path d="M20 12h2"/>
    <path d="M4.93 19.07l1.41-1.41"/>
    <path d="M17.66 6.34l1.41-1.41"/>
  </g>
</svg>