<svg width="512" height="512" viewBox="0 0 512 512" fill="none" xmlns="http://www.w3.org/2000/svg">
  <defs>
    <!-- Gradients inspired by the reference image -->
    <linearGradient id="pink-gradient" x1="0%" y1="0%" x2="100%" y2="100%">
      <stop offset="0%" stop-color="#ff3d71"/>
      <stop offset="100%" stop-color="#e91e63"/>
    </linearGradient>
    <linearGradient id="blue-gradient" x1="0%" y1="0%" x2="100%" y2="100%">
      <stop offset="0%" stop-color="#4fc3f7"/>
      <stop offset="100%" stop-color="#2196f3"/>
    </linearGradient>
    <linearGradient id="green-gradient" x1="0%" y1="0%" x2="100%" y2="100%">
      <stop offset="0%" stop-color="#66bb6a"/>
      <stop offset="100%" stop-color="#4caf50"/>
    </linearGradient>
    <linearGradient id="purple-gradient" x1="0%" y1="0%" x2="100%" y2="100%">
      <stop offset="0%" stop-color="#ab47bc"/>
      <stop offset="100%" stop-color="#9c27b0"/>
    </linearGradient>
    <linearGradient id="cyan-gradient" x1="0%" y1="0%" x2="100%" y2="100%">
      <stop offset="0%" stop-color="#26c6da"/>
      <stop offset="100%" stop-color="#00bcd4"/>
    </linearGradient>
    <linearGradient id="orange-gradient" x1="0%" y1="0%" x2="100%" y2="100%">
      <stop offset="0%" stop-color="#ffa726"/>
      <stop offset="100%" stop-color="#ff9800"/>
    </linearGradient>
  </defs>

  <!-- Black background -->
  <rect width="512" height="512" fill="#0a0a0a"/>

  <!-- Central geometric composition -->
  <g transform="translate(256,256)">
    <!-- Main star-like structure -->
    <!-- Center piece -->
    <polygon points="0,-40 34.6,-20 34.6,20 0,40 -34.6,20 -34.6,-20" fill="url(#pink-gradient)" opacity="0.9"/>

    <!-- Top spikes -->
    <polygon points="0,-40 20,-80 -20,-80" fill="url(#blue-gradient)" opacity="0.8"/>
    <polygon points="0,-40 40,-60 20,-80" fill="url(#cyan-gradient)" opacity="0.7"/>
    <polygon points="0,-40 -40,-60 -20,-80" fill="url(#purple-gradient)" opacity="0.7"/>

    <!-- Right spikes -->
    <polygon points="34.6,-20 80,-20 60,-60" fill="url(#green-gradient)" opacity="0.8"/>
    <polygon points="34.6,20 80,20 60,60" fill="url(#orange-gradient)" opacity="0.8"/>
    <polygon points="34.6,-20 60,-60 80,-20" fill="url(#blue-gradient)" opacity="0.6"/>

    <!-- Bottom spikes -->
    <polygon points="0,40 20,80 -20,80" fill="url(#purple-gradient)" opacity="0.8"/>
    <polygon points="0,40 40,60 20,80" fill="url(#pink-gradient)" opacity="0.7"/>
    <polygon points="0,40 -40,60 -20,80" fill="url(#cyan-gradient)" opacity="0.7"/>

    <!-- Left spikes -->
    <polygon points="-34.6,-20 -80,-20 -60,-60" fill="url(#orange-gradient)" opacity="0.8"/>
    <polygon points="-34.6,20 -80,20 -60,60" fill="url(#blue-gradient)" opacity="0.8"/>
    <polygon points="-34.6,-20 -60,-60 -80,-20" fill="url(#green-gradient)" opacity="0.6"/>

    <!-- Diagonal extensions -->
    <polygon points="34.6,-20 60,-40 40,-60" fill="url(#pink-gradient)" opacity="0.5"/>
    <polygon points="34.6,20 60,40 40,60" fill="url(#cyan-gradient)" opacity="0.5"/>
    <polygon points="-34.6,-20 -60,-40 -40,-60" fill="url(#green-gradient)" opacity="0.5"/>
    <polygon points="-34.6,20 -60,40 -40,60" fill="url(#purple-gradient)" opacity="0.5"/>

    <!-- Additional geometric details -->
    <polygon points="0,-40 15,-55 -15,-55" fill="url(#cyan-gradient)" opacity="0.6"/>
    <polygon points="34.6,-20 49.6,-35 34.6,-35" fill="url(#purple-gradient)" opacity="0.6"/>
    <polygon points="34.6,20 49.6,35 34.6,35" fill="url(#blue-gradient)" opacity="0.6"/>
    <polygon points="0,40 15,55 -15,55" fill="url(#orange-gradient)" opacity="0.6"/>
    <polygon points="-34.6,20 -49.6,35 -34.6,35" fill="url(#pink-gradient)" opacity="0.6"/>
    <polygon points="-34.6,-20 -49.6,-35 -34.6,-35" fill="url(#green-gradient)" opacity="0.6"/>

    <!-- Inner crystalline structure -->
    <polygon points="0,-20 17.3,-10 17.3,10 0,20 -17.3,10 -17.3,-10" fill="url(#cyan-gradient)" opacity="0.3"/>
    <polygon points="0,-10 8.7,-5 8.7,5 0,10 -8.7,5 -8.7,-5" fill="#ffffff" opacity="0.2"/>
  </g>

  <!-- Subtle background geometric elements -->
  <g opacity="0.1">
    <polygon points="100,100 150,75 150,125" fill="url(#pink-gradient)"/>
    <polygon points="412,100 362,75 362,125" fill="url(#blue-gradient)"/>
    <polygon points="100,412 150,387 150,437" fill="url(#green-gradient)"/>
    <polygon points="412,412 362,387 362,437" fill="url(#purple-gradient)"/>
  </g>
</svg>